<svg width="36" height="36" viewBox="0 0 36 36" fill="none" xmlns="http://www.w3.org/2000/svg">
<path d="M28.9375 24.5625C26.9053 24.5625 25.2078 25.9625 24.7178 27.8438H11.2822C11.0856 27.0921 10.6925 26.4063 10.1431 25.8569C9.5937 25.3075 8.90792 24.9144 8.15625 24.7178V21.2812C8.15625 20.0759 9.13734 19.0938 10.3438 19.0938H25.6562C28.0691 19.0938 30.0312 17.1316 30.0312 14.7188V11.2822C31.9125 10.7933 33.3125 9.09469 33.3125 7.0625C33.3125 4.64969 31.3503 2.6875 28.9375 2.6875C26.5247 2.6875 24.5625 4.64969 24.5625 7.0625C24.5625 9.09469 25.9625 10.7922 27.8438 11.2822V14.7188C27.8438 15.9252 26.8627 16.9062 25.6562 16.9062H10.3438C7.93094 16.9062 5.96875 18.8684 5.96875 21.2812V24.7178C4.0875 25.2067 2.6875 26.9053 2.6875 28.9375C2.6875 31.3503 4.64969 33.3125 7.0625 33.3125C9.09469 33.3125 10.7922 31.9125 11.2822 30.0312H24.7178C25.2067 31.9125 26.9053 33.3125 28.9375 33.3125C31.3503 33.3125 33.3125 31.3503 33.3125 28.9375C33.3125 26.5247 31.3503 24.5625 28.9375 24.5625ZM26.75 7.0625C26.75 5.85719 27.7311 4.875 28.9375 4.875C30.1439 4.875 31.125 5.85719 31.125 7.0625C31.125 8.26781 30.1439 9.25 28.9375 9.25C27.7311 9.25 26.75 8.26891 26.75 7.0625ZM7.0625 31.125C5.85609 31.125 4.875 30.1439 4.875 28.9375C4.875 27.7311 5.85609 26.75 7.0625 26.75C8.26891 26.75 9.25 27.7322 9.25 28.9375C9.25 30.1428 8.26891 31.125 7.0625 31.125ZM28.9375 31.125C27.7311 31.125 26.75 30.1439 26.75 28.9375C26.75 27.7311 27.7311 26.75 28.9375 26.75C30.1439 26.75 31.125 27.7322 31.125 28.9375C31.125 30.1428 30.1439 31.125 28.9375 31.125Z" fill="#FFAE42"/>
<path d="M7.17969 11.5078C7.98039 11.5078 8.7205 11.2752 9.36431 10.8943L13.2239 14.7539L14.7539 13.2239L10.8943 9.36431C11.2919 8.70468 11.5039 7.94987 11.5078 7.17969C11.5078 4.79273 9.56665 2.85156 7.17969 2.85156C4.79273 2.85156 2.85156 4.79273 2.85156 7.17969C2.85156 9.56665 4.79273 11.5078 7.17969 11.5078ZM7.17969 5.01562C8.37317 5.01562 9.34375 5.98729 9.34375 7.17969C9.34375 8.37209 8.37317 9.34375 7.17969 9.34375C5.98621 9.34375 5.01562 8.37317 5.01562 7.17969C5.01562 5.98621 5.98621 5.01562 7.17969 5.01562Z" fill="#FFAE42"/>
</svg>
