<svg width="35" height="36" viewBox="0 0 35 36" fill="none" xmlns="http://www.w3.org/2000/svg">
<path d="M12.0313 26.75H22.9688V28.9375H12.0313V26.75ZM14.2188 31.125H20.7813V33.3125H14.2188V31.125ZM17.5 2.6875C14.5992 2.6875 11.8172 3.83984 9.76602 5.89102C7.71484 7.9422 6.5625 10.7242 6.5625 13.625C6.48854 15.2146 6.79303 16.799 7.45095 18.248C8.10886 19.6969 9.10139 20.9689 10.3469 21.9594C11.4406 22.9766 12.0313 23.5562 12.0313 24.5625H14.2188C14.2188 22.55 13.0047 21.4234 11.8234 20.3406C10.8012 19.5578 9.98645 18.5362 9.45064 17.3655C8.91482 16.1947 8.67425 14.9103 8.75 13.625C8.75 11.3044 9.67187 9.07876 11.3128 7.43782C12.9538 5.79687 15.1794 4.875 17.5 4.875C19.8206 4.875 22.0462 5.79687 23.6872 7.43782C25.3281 9.07876 26.25 11.3044 26.25 13.625C26.3245 14.9113 26.0822 16.1962 25.5445 17.3671C25.0067 18.5379 24.1899 19.559 23.1656 20.3406C21.9953 21.4344 20.7813 22.5281 20.7813 24.5625H22.9688C22.9688 23.5562 23.5484 22.9766 24.6531 21.9484C25.8977 20.9597 26.8898 19.6895 27.5477 18.2425C28.2056 16.7955 28.5106 15.2129 28.4375 13.625C28.4375 12.1887 28.1546 10.7664 27.6049 9.4394C27.0553 8.1124 26.2496 6.90666 25.234 5.89102C24.2183 4.87538 23.0126 4.06973 21.6856 3.52007C20.3586 2.97041 18.9363 2.6875 17.5 2.6875Z" fill="#FFAE42"/>
</svg>
