<svg width="35" height="36" viewBox="0 0 35 36" fill="none" xmlns="http://www.w3.org/2000/svg">
<g clip-path="url(#clip0_8_114)">
<path d="M20.3487 2.71219L17.8806 15.6792L26.8215 15.7093L14.6513 33.288L17.1194 19.0222L8.17908 18.991L20.3487 2.71219ZM20.3503 0.524727C20.2913 0.524727 20.2322 0.52688 20.1743 0.531221C19.7882 0.562427 19.5322 0.691489 19.2287 0.895474C19.0578 1.00941 18.9038 1.14673 18.771 1.30344C18.7311 1.35049 18.6935 1.39939 18.6583 1.45L6.40119 17.672C5.9172 18.3353 5.84611 19.2109 6.21798 19.9426C6.58931 20.6743 7.34017 21.1381 8.16322 21.1441L14.4774 21.19L12.4923 32.8861C12.3036 33.8912 12.8395 34.8931 13.7829 35.2967C14.0571 35.4145 14.3524 35.4752 14.6508 35.475C15.3382 35.475 15.9031 35.1534 16.327 34.5726L28.5994 16.9938C29.0834 16.3304 29.154 15.4538 28.7826 14.7232C28.4113 13.9915 27.6604 13.5277 26.8374 13.5217L20.5231 13.5108L22.487 3.22677C22.5286 3.0584 22.5495 2.88559 22.5493 2.71216C22.5493 1.52872 21.607 0.564033 20.428 0.525752C20.4018 0.524658 20.376 0.524658 20.3504 0.524658L20.3503 0.524727Z" fill="#FFAE42"/>
</g>
<defs>
<clipPath id="clip0_8_114">
<rect width="35" height="35" fill="white" transform="translate(0 0.5)"/>
</clipPath>
</defs>
</svg>
