<svg width="35" height="36" viewBox="0 0 35 36" fill="none" xmlns="http://www.w3.org/2000/svg">
<g clip-path="url(#clip0_4_40)">
<path d="M24.0625 2.875C24.6427 2.875 25.1991 3.10547 25.6093 3.5157C26.0195 3.92594 26.25 4.48234 26.25 5.0625V31.3125C26.25 31.8927 26.0195 32.4491 25.6093 32.8593C25.1991 33.2695 24.6427 33.5 24.0625 33.5H10.9375C10.3573 33.5 9.80094 33.2695 9.3907 32.8593C8.98047 32.4491 8.75 31.8927 8.75 31.3125V5.0625C8.75 4.48234 8.98047 3.92594 9.3907 3.5157C9.80094 3.10547 10.3573 2.875 10.9375 2.875H24.0625ZM10.9375 0.6875C9.77718 0.6875 8.66438 1.14844 7.84391 1.96891C7.02344 2.78938 6.5625 3.90218 6.5625 5.0625V31.3125C6.5625 32.4728 7.02344 33.5856 7.84391 34.4061C8.66438 35.2266 9.77718 35.6875 10.9375 35.6875H24.0625C25.2228 35.6875 26.3356 35.2266 27.1561 34.4061C27.9766 33.5856 28.4375 32.4728 28.4375 31.3125V5.0625C28.4375 3.90218 27.9766 2.78938 27.1561 1.96891C26.3356 1.14844 25.2228 0.6875 24.0625 0.6875L10.9375 0.6875Z" fill="#FFAE42"/>
<path d="M17.5 31.3125C18.0802 31.3125 18.6366 31.082 19.0468 30.6718C19.457 30.2616 19.6875 29.7052 19.6875 29.125C19.6875 28.5448 19.457 27.9884 19.0468 27.5782C18.6366 27.168 18.0802 26.9375 17.5 26.9375C16.9198 26.9375 16.3634 27.168 15.9532 27.5782C15.543 27.9884 15.3125 28.5448 15.3125 29.125C15.3125 29.7052 15.543 30.2616 15.9532 30.6718C16.3634 31.082 16.9198 31.3125 17.5 31.3125Z" fill="#FFAE42"/>
</g>
<defs>
<clipPath id="clip0_4_40">
<rect width="35" height="35" fill="white" transform="translate(0 0.6875)"/>
</clipPath>
</defs>
</svg>
