<svg width="35" height="36" viewBox="0 0 35 36" fill="none" xmlns="http://www.w3.org/2000/svg">
<path d="M5.10422 12.1666C5.10451 10.784 5.4622 9.42493 6.14258 8.22129C6.82297 7.01766 7.80293 6.01034 8.98738 5.29709C10.1718 4.58384 11.5206 4.18889 12.9026 4.15055C14.2847 4.11221 15.6533 4.43179 16.8754 5.07828C18.0976 5.72476 19.1319 6.67621 19.878 7.84027C20.624 9.00433 21.0565 10.3415 21.1335 11.722C21.2104 13.1025 20.9292 14.4794 20.3171 15.7191C19.705 16.9589 18.7828 18.0194 17.6401 18.7977C20.101 19.7003 22.2355 21.3187 23.7689 23.4447C25.3023 25.5706 26.1644 28.1068 26.2442 30.7268C26.2408 31.0093 26.1284 31.2796 25.9305 31.4811C25.7325 31.6827 25.4643 31.7999 25.1819 31.8084C24.8996 31.8169 24.6248 31.7159 24.4151 31.5266C24.2055 31.3372 24.077 31.0742 24.0567 30.7925C23.9699 27.9508 22.78 25.2547 20.7393 23.2753C18.6985 21.296 15.9673 20.1891 13.1243 20.1891C10.2814 20.1891 7.55013 21.296 5.50939 23.2753C3.46865 25.2547 2.27878 27.9508 2.19193 30.7925C2.17733 31.078 2.05146 31.3466 1.84129 31.5405C1.63112 31.7344 1.35336 31.8383 1.06752 31.8299C0.781678 31.8215 0.510492 31.7015 0.312055 31.4956C0.113619 31.2897 0.00371577 31.0142 0.00589106 30.7283C0.0854451 28.108 0.947401 25.5715 2.48081 23.4453C4.01422 21.319 6.14889 19.7004 8.61006 18.7977C7.52955 18.0618 6.64529 17.0729 6.03426 15.9172C5.42323 14.7615 5.10395 13.4739 5.10422 12.1666ZM13.1251 6.33329C11.578 6.33329 10.0942 6.94787 9.00027 8.04183C7.90631 9.1358 7.29172 10.6195 7.29172 12.1666C7.29172 13.7137 7.90631 15.1975 9.00027 16.2914C10.0942 17.3854 11.578 18 13.1251 18C14.6722 18 16.1559 17.3854 17.2498 16.2914C18.3438 15.1975 18.9584 13.7137 18.9584 12.1666C18.9584 10.6195 18.3438 9.1358 17.2498 8.04183C16.1559 6.94787 14.6722 6.33329 13.1251 6.33329ZM25.2146 12.1666C24.9998 12.1666 24.7888 12.1812 24.5817 12.2104C24.4371 12.2363 24.2888 12.2328 24.1456 12.2001C24.0024 12.1674 23.8673 12.1062 23.7482 12.0202C23.6292 11.9341 23.5287 11.825 23.4528 11.6993C23.3768 11.5736 23.327 11.4338 23.3062 11.2884C23.2854 11.143 23.2941 10.9949 23.3319 10.853C23.3696 10.711 23.4355 10.5781 23.5257 10.4622C23.6158 10.3462 23.7285 10.2497 23.8568 10.1782C23.9851 10.1067 24.1265 10.0618 24.2726 10.0462C25.723 9.8365 27.202 10.115 28.4767 10.838C29.7515 11.5609 30.7497 12.6872 31.3143 14.0396C31.8788 15.392 31.9776 16.8937 31.5952 18.3084C31.2128 19.7232 30.3708 20.9706 29.2017 21.8543C30.9202 22.6238 32.3793 23.8741 33.403 25.4544C34.4267 27.0347 34.9712 28.8775 34.9709 30.7604C34.9709 31.0505 34.8557 31.3287 34.6505 31.5338C34.4454 31.7389 34.1672 31.8541 33.8771 31.8541C33.5871 31.8541 33.3089 31.7389 33.1037 31.5338C32.8986 31.3287 32.7834 31.0505 32.7834 30.7604C32.7839 29.1329 32.2599 27.5486 31.2889 26.2425C30.318 24.9364 28.952 23.978 27.3934 23.5095L26.6146 23.2762V20.832L27.2126 20.5272C28.0989 20.0783 28.808 19.3437 29.2255 18.4422C29.643 17.5406 29.7445 16.5247 29.5136 15.5584C29.2826 14.592 28.7328 13.7317 27.9528 13.1163C27.1728 12.5009 26.2082 12.1664 25.2146 12.1666Z" fill="#FFAE42"/>
</svg>
