<svg width="35" height="36" viewBox="0 0 35 36" fill="none" xmlns="http://www.w3.org/2000/svg">
<path d="M17.5 12.1667C17.5 12.1667 17.5 12.1667 16.3917 10.7084C15.1083 9.01675 13.2125 7.79175 10.9375 7.79175C7.30625 7.79175 4.375 10.723 4.375 14.3542C4.375 15.7105 4.78333 16.9647 5.48333 18.0001C6.66458 19.7647 17.5 31.1251 17.5 31.1251M17.5 12.1667C17.5 12.1667 17.5 12.1667 18.6083 10.7084C19.8917 9.01675 21.7875 7.79175 24.0625 7.79175C27.6938 7.79175 30.625 10.723 30.625 14.3542C30.625 15.7105 30.2167 16.9647 29.5167 18.0001C28.3354 19.7647 17.5 31.1251 17.5 31.1251" stroke="#FFAE42" stroke-width="2.91667" stroke-linecap="round" stroke-linejoin="round"/>
</svg>
