<svg width="36" height="36" viewBox="0 0 36 36" fill="none" xmlns="http://www.w3.org/2000/svg">
<g clip-path="url(#clip0_4_51)">
<path d="M1.62679 18.103C1.62598 21.0437 2.39435 23.9151 3.85539 26.4459L1.48706 35.0931L10.3364 32.7728C12.784 34.1052 15.5263 34.8034 18.3131 34.8036H18.3204C27.5201 34.8036 35.0089 27.3175 35.0129 18.1162C35.0146 13.6575 33.2798 9.46482 30.1279 6.31047C26.9766 3.1564 22.7854 1.41848 18.3198 1.41644C9.11896 1.41644 1.63072 8.9021 1.62692 18.103" fill="url(#paint0_linear_4_51)"/>
<path d="M1.03084 18.0976C1.02989 21.1441 1.8258 24.1182 3.33894 26.7396L0.885681 35.6968L10.0523 33.2933C12.578 34.6704 15.4217 35.3964 18.3153 35.3975H18.3227C27.8525 35.3975 35.6103 27.6422 35.6144 18.1115C35.616 13.4925 33.8188 9.14915 30.5543 5.8818C27.2894 2.61486 22.9483 0.814399 18.3227 0.8125C8.79134 0.8125 1.03463 8.56676 1.03084 18.0976ZM6.48989 26.2882L6.14762 25.7448C4.70882 23.4571 3.9494 20.8134 3.95049 18.0987C3.95347 10.1769 10.4005 3.73188 18.3282 3.73188C22.1673 3.73351 25.7753 5.2301 28.489 7.94545C31.2026 10.6611 32.6958 14.271 32.6948 18.1104C32.6913 26.0322 26.2441 32.478 18.3227 32.478H18.317C15.7378 32.4766 13.2081 31.784 11.002 30.475L10.477 30.1637L5.03739 31.5898L6.48989 26.2882Z" fill="url(#paint1_linear_4_51)"/>
<path d="M14.0009 10.8713C13.6772 10.1519 13.3366 10.1374 13.0288 10.1248C12.7767 10.1139 12.4886 10.1148 12.2007 10.1148C11.9126 10.1148 11.4444 10.2232 11.0487 10.6552C10.6526 11.0877 9.53638 12.1328 9.53638 14.2585C9.53638 16.3841 11.0847 18.4385 11.3005 18.7271C11.5166 19.0151 14.2895 23.5168 18.681 25.2486C22.3308 26.6878 23.0735 26.4016 23.8656 26.3294C24.6579 26.2575 26.422 25.2845 26.7819 24.2757C27.1421 23.2669 27.1421 22.4022 27.0341 22.2215C26.9261 22.0415 26.6379 21.9334 26.2059 21.7174C25.7738 21.5014 23.6495 20.456 23.2535 20.3118C22.8574 20.1678 22.5694 20.0959 22.2813 20.5285C21.9931 20.9604 21.1657 21.9334 20.9135 22.2215C20.6616 22.5103 20.4094 22.5463 19.9775 22.3302C19.5452 22.1134 18.1537 21.6577 16.5029 20.1859C15.2185 19.0407 14.3513 17.6265 14.0993 17.1938C13.8472 16.7619 14.0723 16.5278 14.2889 16.3125C14.483 16.1189 14.7211 15.808 14.9374 15.5558C15.1528 15.3034 15.2247 15.1234 15.3688 14.8353C15.513 14.5469 15.4408 14.2945 15.3329 14.0784C15.2247 13.8623 14.3851 11.7256 14.0009 10.8713Z" fill="white"/>
</g>
<defs>
<linearGradient id="paint0_linear_4_51" x1="1677.78" y1="3369.08" x2="1677.78" y2="1.41644" gradientUnits="userSpaceOnUse">
<stop stop-color="#1FAF38"/>
<stop offset="1" stop-color="#60D669"/>
</linearGradient>
<linearGradient id="paint1_linear_4_51" x1="1737.32" y1="3489.24" x2="1737.32" y2="0.8125" gradientUnits="userSpaceOnUse">
<stop stop-color="#F9F9F9"/>
<stop offset="1" stop-color="white"/>
</linearGradient>
<clipPath id="clip0_4_51">
<rect width="34.73" height="35" fill="white" transform="translate(0.88501 0.8125)"/>
</clipPath>
</defs>
</svg>
